# xmcd
# Copyright (C) 1995-1998 Ti Kan
#
# Track frame offsets:
#       150
#       18650
#       44579
#       61016
#       80078
#       84121
#       98607
#       112493
#       120322
#       137390
#       151871
#       166446
#       183278
#       185455
#       208765
#       216374
#
# Disc length: 3148 seconds
#
# Revision: 0
# Processed by: cddbd v1.5.2PL0 Copyright (c) Steve Scherf et al.
# Submitted via: CD-Import v1.0
#
DISCID=d50c4a10
DTITLE=Patent Ochsner  - The Rimini Flashdown
DYEAR=2008
DGENRE=
TTITLE0=Tiger
TTITLE1=Angelina
TTITLE2=Farfromdasea
TTITLE3=Globetrotter
TTITLE4=Boca Chica
TTITLE5=Rimini
TTITLE6=Schtürchle and Schtoggle
TTITLE7=Brautstrauss
TTITLE8=Happy
TTITLE9=Chäuer
TTITLE10=Gruusigs Lied
TTITLE11=Blue September
TTITLE12=Choral
TTITLE13=21 Gramm
TTITLE14=Rimini Reprise
TTITLE15=Apollo 11
EXTD=
EXTT0=
EXTT1=
EXTT2=
EXTT3=
EXTT4=
EXTT5=
EXTT6=
EXTT7=
EXTT8=
EXTT9=
EXTT10=
EXTT11=
EXTT12=
EXTT13=
EXTT14=
EXTT15=
PLAYORDER=
